<svg width="1200" height="630" viewBox="0 0 1200 630" fill="none" xmlns="http://www.w3.org/2000/svg">

  <!-- Background -->
  <rect width="1200" height="630" fill="#0A0A0A"/>

  <!-- Radial glow top center -->
  <radialGradient id="glow" cx="50%" cy="0%" r="70%" gradientUnits="userSpaceOnUse" x1="0" y1="0" x2="1200" y2="630">
    <stop offset="0%" stop-color="#FFFFFF" stop-opacity="0.05"/>
    <stop offset="100%" stop-color="#FFFFFF" stop-opacity="0"/>
  </radialGradient>
  <rect width="1200" height="630" fill="url(#glow)"/>

  <!-- Green brand line top -->
  <rect width="1200" height="1.5" fill="#01FE4A" fill-opacity="0.22"/>

  <!-- Bottom divider -->
  <rect y="560" width="1200" height="1" fill="#FFFFFF" fill-opacity="0.06"/>

  <!-- Imagotype — scale 0.84, centered vertically -->
  <g transform="translate(80, 248) scale(0.84)">
    <path d="M83.919 7.97643C79.7537 12.1726 60.5061 31.6003 56.0958 35.9872L28.4631 63.6711C27.7281 64.4068 27.1019 65.1697 26.5302 65.9871C26.258 66.3959 25.9857 66.8046 25.7679 67.2133C25.0329 68.494 24.4884 69.8291 24.1345 71.2187C23.9167 72.1452 23.7261 73.0716 23.6444 74.0253C23.5355 75.0607 23.5355 76.0689 23.6444 77.1043C23.6716 77.6492 23.7533 78.1942 23.8622 78.7119C23.9439 79.1206 24.0256 79.5021 24.1345 79.9108C24.2161 80.265 24.325 80.592 24.4339 80.9462C24.5428 81.3005 24.6517 81.6274 24.8151 81.9544C24.924 82.2814 25.0601 82.6084 25.2234 82.9081C25.4685 83.4258 25.7407 83.9435 26.0674 84.4612C26.258 84.7609 26.4485 85.0607 26.6391 85.3331C27.1836 86.0961 27.7825 86.8045 28.4631 87.4857L50.3787 109.42C50.3787 109.42 54.3807 112.69 54.1084 117.322C54.054 120.483 49.0175 125.224 45.0427 129.611C42.7287 132.172 40.469 135.006 39.4345 136.341L5.89418 116.096C2.65449 114.134 0.667114 110.619 0.667114 106.832V42.9354C0.667114 39.0118 2.76339 35.415 6.16642 33.5077L62.2485 1.81841C65.5154 -0.00720021 69.4901 -0.0344481 72.7843 1.81841L83.919 8.00367V7.97643Z" fill="#01FE4A"/>
    <path d="M135.591 42.9894V109.147C135.591 113.071 133.467 116.695 130.037 118.602L72.9476 150.21C69.5718 152.09 65.4609 152.008 62.1396 150.019L51.5221 143.616C54.4895 140.619 75.18 119.747 79.7809 115.142L107.414 87.4852C109.592 85.3054 111.034 82.6896 111.742 79.9103C111.851 79.5016 111.933 79.1201 112.014 78.7114C112.096 78.1664 112.178 77.6487 112.232 77.1038C112.341 76.0683 112.341 75.0602 112.232 74.0247C112.151 73.0711 111.96 72.1446 111.742 71.2182C111.034 68.4662 109.592 65.8504 107.414 63.6706L85.498 41.7088C85.498 41.7088 81.496 38.4663 81.7683 33.8341C81.8227 30.6461 86.8592 25.905 90.834 21.5454C93.1208 19.0386 95.326 16.2593 96.3877 14.8696L130.037 33.5344C133.467 35.4145 135.591 39.0385 135.591 42.9894Z" fill="#01FE4A"/>
  </g>

  <!-- SWIP wordmark -->
  <text
    x="230" y="334"
    font-family="-apple-system, 'Helvetica Neue', Helvetica, Arial, sans-serif"
    font-size="100" font-weight="400" letter-spacing="-3"
    fill="#FFFFFF"
  >SWIP</text>

  <!-- Tagline -->
  <text
    x="234" y="386"
    font-family="-apple-system, 'Helvetica Neue', Helvetica, Arial, sans-serif"
    font-size="22" font-weight="300"
    fill="#A8A8A8" fill-opacity="0.75"
  >Liquidez inteligente con respaldo en tu auto.</text>

  <!-- Especialidad -->
  <text
    x="234" y="420"
    font-family="-apple-system, 'Helvetica Neue', Helvetica, Arial, sans-serif"
    font-size="14" font-weight="300" letter-spacing="2.5"
    fill="#A8A8A8" fill-opacity="0.38"
  >AUTOS DE LUJO · BLINDADOS · ALTO VALOR · MÉXICO</text>

  <!-- URL bottom left -->
  <text
    x="80" y="593"
    font-family="-apple-system, 'Helvetica Neue', Helvetica, Arial, sans-serif"
    font-size="13" font-weight="300" letter-spacing="2"
    fill="#A8A8A8" fill-opacity="0.28"
  >SWIP.MX</text>

  <!-- Range bottom right -->
  <text
    x="1120" y="593"
    text-anchor="end"
    font-family="-apple-system, 'Helvetica Neue', Helvetica, Arial, sans-serif"
    font-size="13" font-weight="300" letter-spacing="1.5"
    fill="#A8A8A8" fill-opacity="0.28"
  >$90K – $5M MXN</text>

</svg>
