<svg width="627" height="152" viewBox="0 0 627 152" fill="none" xmlns="http://www.w3.org/2000/svg">
<g clip-path="url(#clip0_4_457)">
<path d="M83.919 7.97643C79.7537 12.1726 60.5061 31.6003 56.0958 35.9872L28.4631 63.6711C27.7281 64.4068 27.1019 65.1697 26.5302 65.9871C26.258 66.3959 25.9857 66.8046 25.7679 67.2133C25.0329 68.494 24.4884 69.8291 24.1345 71.2187C23.9167 72.1452 23.7261 73.0716 23.6444 74.0253C23.5355 75.0607 23.5355 76.0689 23.6444 77.1043C23.6716 77.6492 23.7533 78.1942 23.8622 78.7119C23.9439 79.1206 24.0256 79.5021 24.1345 79.9108C24.2161 80.265 24.325 80.592 24.4339 80.9462C24.5428 81.3005 24.6517 81.6274 24.8151 81.9544C24.924 82.2814 25.0601 82.6084 25.2234 82.9081C25.4685 83.4258 25.7407 83.9435 26.0674 84.4612C26.258 84.7609 26.4485 85.0607 26.6391 85.3331C27.1836 86.0961 27.7825 86.8045 28.4631 87.4857L50.3787 109.42C50.3787 109.42 54.3807 112.69 54.1084 117.322C54.054 120.483 49.0175 125.224 45.0427 129.611C42.7287 132.172 40.469 135.006 39.4345 136.341L5.89418 116.096C2.65449 114.134 0.667114 110.619 0.667114 106.832V42.9354C0.667114 39.0118 2.76339 35.415 6.16642 33.5077L62.2485 1.81841C65.5154 -0.00720021 69.4901 -0.0344481 72.7843 1.81841L83.919 8.00367V7.97643Z" fill="#01FE4A"/>
<path d="M135.591 42.9894V109.147C135.591 113.071 133.467 116.695 130.037 118.602L72.9476 150.21C69.5718 152.09 65.4609 152.008 62.1396 150.019L51.5221 143.616C54.4895 140.619 75.18 119.747 79.7809 115.142L107.414 87.4852C109.592 85.3054 111.034 82.6896 111.742 79.9103C111.851 79.5016 111.933 79.1201 112.014 78.7114C112.096 78.1664 112.178 77.6487 112.232 77.1038C112.341 76.0683 112.341 75.0602 112.232 74.0247C112.151 73.0711 111.96 72.1446 111.742 71.2182C111.034 68.4662 109.592 65.8504 107.414 63.6706L85.498 41.7088C85.498 41.7088 81.496 38.4663 81.7683 33.8341C81.8227 30.6461 86.8592 25.905 90.834 21.5454C93.1208 19.0386 95.326 16.2593 96.3877 14.8696L130.037 33.5344C133.467 35.4145 135.591 39.0385 135.591 42.9894Z" fill="#01FE4A"/>
</g>
<path d="M169.215 96.0829V90.2299H181.238V94.5778C181.238 96.4731 181.461 98.1453 181.906 99.5947C182.463 101.044 183.354 102.27 184.578 103.274C185.914 104.277 187.695 105.057 189.922 105.615C192.149 106.172 194.988 106.451 198.439 106.451H243.361C249.15 106.451 253.603 105.503 256.72 103.608C259.838 101.713 261.396 98.87 261.396 95.0795V91.5677C261.396 87.8887 260.005 85.0458 257.221 83.039C254.549 81.0323 250.709 79.9732 245.699 79.8617L197.771 78.8583C188.864 78.7468 181.906 77.2418 176.896 74.3432C171.887 71.3331 169.382 66.0375 169.382 58.4565V54.6102C169.382 48.59 171.664 43.5731 176.228 39.5597C180.904 35.5462 188.196 33.5394 198.105 33.5394H242.192C248.76 33.5394 254.104 34.2083 258.223 35.5462C262.343 36.7725 265.516 38.3891 267.742 40.3958C270.08 42.4025 271.639 44.6323 272.418 47.0849C273.309 49.4261 273.754 51.7673 273.754 54.1085V59.7943H261.73V55.6136C261.73 54.1643 261.563 52.7707 261.229 51.4329C260.895 49.9836 260.06 48.7015 258.724 47.5866C257.5 46.4718 255.718 45.5799 253.381 44.911C251.043 44.2421 247.87 43.9076 243.862 43.9076H196.936C186.471 43.9076 181.238 47.5866 181.238 54.9447V58.4565C181.238 62.247 182.574 64.8669 185.246 66.3162C188.029 67.7655 191.926 68.5459 196.936 68.6574L245.031 69.6608C254.048 69.8837 261.007 71.6675 265.905 75.0121C270.804 78.3566 273.253 83.8752 273.253 91.5677V96.2501C273.253 102.27 270.915 107.176 266.239 110.966C261.563 114.645 254.048 116.485 243.695 116.485H196.769C191.202 116.485 186.638 115.927 183.075 114.812C179.513 113.698 176.674 112.193 174.558 110.297C172.555 108.402 171.163 106.228 170.384 103.775C169.604 101.323 169.215 98.7585 169.215 96.0829Z" fill="#E3EBED"/>
<path d="M341.843 116.485H326.145L281.891 33.8739H295.251L332.491 103.441H335.163L372.236 33.8739H386.597L423.671 103.441H426.509L463.583 33.8739H476.942L433.189 116.485H417.325L379.584 45.5799L341.843 116.485Z" fill="#E3EBED"/>
<path d="M501.808 33.8739V116.485H489.784V33.8739H501.808ZM501.808 0.428223V12.4687H489.784V0.428223H501.808Z" fill="#E3EBED"/>
<path d="M557.865 33.5394H590.429C597.22 33.5394 602.898 34.4313 607.462 36.2151C612.138 37.9989 615.868 40.3958 618.651 43.4059C621.434 46.416 623.383 49.9278 624.496 53.9413C625.721 57.8433 626.333 61.9125 626.333 66.149V84.2096C626.333 88.5576 625.721 92.6825 624.496 96.5845C623.271 100.487 621.212 103.943 618.317 106.953C615.534 109.963 611.86 112.36 607.295 114.144C602.731 115.816 597.109 116.652 590.429 116.652H557.865C552.632 116.652 548.068 116.039 544.171 114.812C540.386 113.475 537.157 111.579 534.485 109.127V150.098H522.462V33.8739H534.485V41.5664C537.046 39.0022 540.219 37.0512 544.004 35.7134C547.901 34.2641 552.521 33.5394 557.865 33.5394ZM533.984 84.2096C533.984 99.0372 542.334 106.451 559.034 106.451H589.26C596.942 106.451 603.009 104.779 607.462 101.434C612.027 97.9781 614.309 92.2366 614.309 84.2096V65.9817C614.309 58.7352 612.138 53.2724 607.796 49.5934C603.566 45.8029 597.387 43.9076 589.26 43.9076H559.034C550.684 43.9076 544.394 45.6356 540.163 49.0917C536.044 52.4362 533.984 58.122 533.984 66.149V84.2096Z" fill="#E3EBED"/>
<defs>
<clipPath id="clip0_4_457">
<rect width="134.924" height="151.144" fill="white" transform="translate(0.667114 0.428223)"/>
</clipPath>
</defs>
</svg>
