<svg width="657" height="182" viewBox="0 0 657 182" fill="none" xmlns="http://www.w3.org/2000/svg">
<g filter="url(#filter0_d_4_467)">
<g clip-path="url(#clip0_4_467)">
<path d="M98.919 18.9764C94.7537 23.1726 75.5061 42.6003 71.0958 46.9872L43.4631 74.6711C42.7281 75.4068 42.1019 76.1697 41.5302 76.9871C41.258 77.3959 40.9857 77.8046 40.7679 78.2133C40.0329 79.494 39.4884 80.8291 39.1345 82.2187C38.9167 83.1452 38.7261 84.0716 38.6444 85.0253C38.5355 86.0607 38.5355 87.0689 38.6444 88.1043C38.6716 88.6492 38.7533 89.1942 38.8622 89.7119C38.9439 90.1206 39.0256 90.5021 39.1345 90.9108C39.2161 91.265 39.325 91.592 39.4339 91.9462C39.5428 92.3005 39.6517 92.6274 39.8151 92.9544C39.924 93.2814 40.0601 93.6084 40.2234 93.9081C40.4685 94.4258 40.7407 94.9435 41.0674 95.4612C41.258 95.7609 41.4485 96.0607 41.6391 96.3331C42.1836 97.0961 42.7825 97.8045 43.4631 98.4857L65.3787 120.42C65.3787 120.42 69.3807 123.69 69.1084 128.322C69.054 131.483 64.0175 136.224 60.0427 140.611C57.7287 143.172 55.469 146.006 54.4345 147.341L20.8942 127.096C17.6545 125.134 15.6671 121.619 15.6671 117.832V53.9354C15.6671 50.0118 17.7634 46.415 21.1664 44.5077L77.2485 12.8184C80.5154 10.9928 84.4901 10.9656 87.7843 12.8184L98.919 19.0037V18.9764Z" fill="#E3EBED"/>
<path d="M150.591 53.9894V120.147C150.591 124.071 148.467 127.695 145.037 129.602L87.9476 161.21C84.5718 163.09 80.4609 163.008 77.1396 161.019L66.5221 154.616C69.4895 151.619 90.18 130.747 94.7809 126.142L122.414 98.4852C124.592 96.3054 126.034 93.6896 126.742 90.9103C126.851 90.5016 126.933 90.1201 127.014 89.7114C127.096 89.1664 127.178 88.6487 127.232 88.1038C127.341 87.0683 127.341 86.0602 127.232 85.0247C127.151 84.0711 126.96 83.1446 126.742 82.2182C126.034 79.4662 124.592 76.8504 122.414 74.6706L100.498 52.7088C100.498 52.7088 96.496 49.4663 96.7683 44.8341C96.8227 41.6461 101.859 36.905 105.834 32.5454C108.121 30.0386 110.326 27.2593 111.388 25.8696L145.037 44.5344C148.467 46.4145 150.591 50.0385 150.591 53.9894Z" fill="#E3EBED"/>
</g>
<path d="M184.215 107.083V101.23H196.238V105.578C196.238 107.473 196.461 109.145 196.906 110.595C197.463 112.044 198.354 113.27 199.578 114.274C200.914 115.277 202.695 116.057 204.922 116.615C207.149 117.172 209.988 117.451 213.439 117.451H258.361C264.15 117.451 268.603 116.503 271.72 114.608C274.838 112.713 276.396 109.87 276.396 106.079V102.568C276.396 98.8887 275.005 96.0458 272.221 94.039C269.549 92.0323 265.709 90.9732 260.699 90.8617L212.771 89.8583C203.864 89.7468 196.906 88.2418 191.896 85.3432C186.887 82.3331 184.382 77.0375 184.382 69.4565V65.6102C184.382 59.59 186.664 54.5731 191.228 50.5597C195.904 46.5462 203.196 44.5394 213.105 44.5394H257.192C263.76 44.5394 269.104 45.2083 273.223 46.5462C277.343 47.7725 280.516 49.3891 282.742 51.3958C285.08 53.4025 286.639 55.6323 287.418 58.0849C288.309 60.4261 288.754 62.7673 288.754 65.1085V70.7943H276.73V66.6136C276.73 65.1643 276.563 63.7707 276.229 62.4329C275.895 60.9836 275.06 59.7015 273.724 58.5866C272.5 57.4718 270.718 56.5799 268.381 55.911C266.043 55.2421 262.87 54.9076 258.862 54.9076H211.936C201.471 54.9076 196.238 58.5866 196.238 65.9447V69.4565C196.238 73.247 197.574 75.8669 200.246 77.3162C203.029 78.7655 206.926 79.5459 211.936 79.6574L260.031 80.6608C269.048 80.8837 276.007 82.6675 280.905 86.0121C285.804 89.3566 288.253 94.8752 288.253 102.568V107.25C288.253 113.27 285.915 118.176 281.239 121.966C276.563 125.645 269.048 127.485 258.695 127.485H211.769C206.202 127.485 201.638 126.927 198.075 125.812C194.513 124.698 191.674 123.193 189.558 121.297C187.555 119.402 186.163 117.228 185.384 114.775C184.604 112.323 184.215 109.759 184.215 107.083Z" fill="#E3EBED"/>
<path d="M356.843 127.485H341.145L296.891 44.8739H310.251L347.491 114.441H350.163L387.236 44.8739H401.597L438.671 114.441H441.509L478.583 44.8739H491.942L448.189 127.485H432.325L394.584 56.5799L356.843 127.485Z" fill="#E3EBED"/>
<path d="M516.808 44.8739V127.485H504.784V44.8739H516.808ZM516.808 11.4282V23.4687H504.784V11.4282H516.808Z" fill="#E3EBED"/>
<path d="M572.865 44.5394H605.429C612.22 44.5394 617.898 45.4313 622.462 47.2151C627.138 48.9989 630.868 51.3958 633.651 54.4059C636.434 57.416 638.383 60.9278 639.496 64.9413C640.721 68.8433 641.333 72.9125 641.333 77.149V95.2096C641.333 99.5576 640.721 103.683 639.496 107.585C638.271 111.487 636.212 114.943 633.317 117.953C630.534 120.963 626.86 123.36 622.295 125.144C617.731 126.816 612.109 127.652 605.429 127.652H572.865C567.632 127.652 563.068 127.039 559.171 125.812C555.386 124.475 552.157 122.579 549.485 120.127V161.098H537.462V44.8739H549.485V52.5664C552.046 50.0022 555.219 48.0512 559.004 46.7134C562.901 45.2641 567.521 44.5394 572.865 44.5394ZM548.984 95.2096C548.984 110.037 557.334 117.451 574.034 117.451H604.26C611.942 117.451 618.009 115.779 622.462 112.434C627.027 108.978 629.309 103.237 629.309 95.2096V76.9817C629.309 69.7352 627.138 64.2724 622.796 60.5934C618.566 56.8029 612.387 54.9076 604.26 54.9076H574.034C565.684 54.9076 559.394 56.6356 555.163 60.0917C551.044 63.4362 548.984 69.122 548.984 77.149V95.2096Z" fill="#E3EBED"/>
</g>
<defs>
<filter id="filter0_d_4_467" x="0.667114" y="0.428223" width="655.666" height="181.144" filterUnits="userSpaceOnUse" color-interpolation-filters="sRGB">
<feFlood flood-opacity="0" result="BackgroundImageFix"/>
<feColorMatrix in="SourceAlpha" type="matrix" values="0 0 0 0 0 0 0 0 0 0 0 0 0 0 0 0 0 0 127 0" result="hardAlpha"/>
<feOffset dy="4"/>
<feGaussianBlur stdDeviation="7.5"/>
<feComposite in2="hardAlpha" operator="out"/>
<feColorMatrix type="matrix" values="0 0 0 0 0 0 0 0 0 0 0 0 0 0 0 0 0 0 0.25 0"/>
<feBlend mode="normal" in2="BackgroundImageFix" result="effect1_dropShadow_4_467"/>
<feBlend mode="normal" in="SourceGraphic" in2="effect1_dropShadow_4_467" result="shape"/>
</filter>
<clipPath id="clip0_4_467">
<rect width="134.924" height="151.144" fill="white" transform="translate(15.6671 11.4282)"/>
</clipPath>
</defs>
</svg>
